<svg width="1006" height="185" viewBox="0 0 1006 185" fill="none" xmlns="http://www.w3.org/2000/svg">
<g clip-path="url(#clip0_2001_8277)">
<path d="M212.98 38.4902C182.32 38.4902 157.46 63.3502 157.46 94.0102C157.46 124.67 182.32 149.53 212.98 149.53C243.64 149.53 268.5 124.67 268.5 94.0102C268.5 63.3502 243.64 38.4902 212.98 38.4902ZM212.98 123.75C196.55 123.75 183.24 110.43 183.24 94.0102C183.24 77.5902 196.56 64.2702 212.98 64.2702C229.4 64.2702 242.72 77.5902 242.72 94.0102C242.72 110.43 229.4 123.75 212.98 123.75Z" fill="#0053FF"/>
<path d="M477.9 1.06006V47.1801C469.29 41.6801 459.06 38.4901 448.09 38.4901C417.43 38.4901 392.57 63.3501 392.57 94.0101C392.57 124.67 417.43 149.53 448.09 149.53C478.75 149.53 503.61 124.67 503.61 94.0101V1.06006H477.9ZM448.09 123.75C431.66 123.75 418.35 110.43 418.35 94.0101C418.35 77.5901 431.67 64.2701 448.09 64.2701C464.51 64.2701 477.83 77.5901 477.83 94.0101C477.83 110.43 464.51 123.75 448.09 123.75Z" fill="#0053FF"/>
<path d="M90.6498 162.63H16.7798C10.6936 162.63 5.75977 167.561 5.75977 173.645C5.75977 179.728 10.6936 184.66 16.7798 184.66H90.6498C96.7359 184.66 101.67 179.728 101.67 173.645C101.67 167.561 96.7359 162.63 90.6498 162.63Z" fill="#0053FF"/>
<path d="M978.32 64.9498L978.3 113.67C978.3 117.66 979.2 120.5 980.99 122.14C982.81 123.81 985.52 124.66 989.06 124.66C993.81 124.66 998.43 123.55 1002.82 121.36L1005.58 119.99V143.49L1004.6 144.04C1001.49 145.79 998.13 147.16 994.6 148.11C991.07 149.05 986.98 149.53 982.41 149.53C977.84 149.53 973.76 148.98 969.95 147.9C966.04 146.78 962.58 144.93 959.69 142.4C956.78 139.88 954.52 136.5 952.97 132.36C951.46 128.31 950.69 123.26 950.69 117.33L950.72 64.9398H937.66L937.67 41.0398H950.73V12.7798L978.34 12.7898V41.0498H1006V64.9498L978.32 64.9398V64.9498Z" fill="#0053FF"/>
<path d="M924.56 80.3601L924.53 147.75H896.92L896.95 87.5001C896.95 79.9701 895.2 74.1501 891.73 70.1901C888.28 66.2401 883.47 64.3201 877.03 64.3201C870.59 64.3201 865.73 66.3201 861.82 70.4301C857.92 74.5201 855.95 80.3901 855.95 87.8701L855.93 147.72H828.32L828.39 1.62012H855.99L855.97 53.2701L858.19 50.7701C860.3 48.5101 862.78 46.4601 865.56 44.6701C868.33 42.8901 871.43 41.4601 874.78 40.4301C878.12 39.3901 881.93 38.8701 886.13 38.8701C898.3 38.8701 907.87 42.7001 914.56 50.2401C921.2 57.7201 924.56 67.8501 924.56 80.3601Z" fill="#0053FF"/>
<path d="M687.23 2.71996L687.21 28.96L657.86 28.95L657.87 2.70996L687.23 2.71996Z" fill="#0053FF"/>
<path d="M686.41 40.9199H658.81V147.65H686.41V40.9199Z" fill="#0053FF"/>
<path d="M634.05 1.53002L633.99 147.63L606.39 147.61L606.45 1.52002L634.05 1.53002Z" fill="#0053FF"/>
<path d="M560.47 37.9101V41.6401L587.75 41.6601V64.9701L560.84 64.9601L560.8 147.59H533.2L533.24 64.9501H520.18L520.19 41.4301H533.25V35.9401C533.26 24.0301 536.23 15.0201 542.08 9.17008C547.93 3.30008 556.29 0.330078 566.95 0.330078C571.23 0.340078 574.95 0.610078 577.99 1.14008C581.09 1.69008 583.98 2.37008 586.59 3.15008L587.96 3.56008V27.5201L585.43 26.6701C583.27 25.9501 581.07 25.3401 578.91 24.8701C576.89 24.4501 574.64 24.2301 572.19 24.2301C568.19 24.2301 565.32 25.2901 563.41 27.4701C561.46 29.6901 560.47 33.2101 560.47 37.9101Z" fill="#0053FF"/>
<path d="M380.76 40.79L380.71 147.51H353.11L353.12 135.21L351.4 137.03C349.01 139.54 346.35 141.85 343.5 143.88C338.14 147.69 331.24 149.63 322.96 149.63C310.78 149.63 301.21 145.8 294.52 138.26C287.88 130.78 284.52 120.65 284.53 108.14L284.56 40.75H312.16L312.13 101C312.13 108.53 313.89 114.35 317.35 118.31C320.79 122.25 325.6 124.17 332.05 124.18C338.38 124.18 343.36 122.18 347.27 118.07C351.16 113.98 353.13 108.12 353.13 100.63L353.16 40.78H380.76V40.79Z" fill="#0053FF"/>
<path d="M143.22 1.3098L143.16 147.41L115.55 147.4L115.62 1.2998L143.22 1.3098Z" fill="#0053FF"/>
<path d="M2.81019 110.06C5.83019 65.84 58.8802 42.21 84.8502 72.88L100.97 55.46C90.4802 43.01 74.7602 34.8 57.2102 35.11C25.2202 35.67 -0.619814 61.61 0.000186387 92.32C0.130186 98.51 0.990186 104.47 2.81019 110.06Z" fill="#0053FF"/>
<path d="M84.8798 112.08C79.0898 119.41 67.8698 125.61 57.8098 125.61C40.3498 125.61 23.0398 109.4 30.1698 81.8799C30.1698 81.8799 9.19976 96.8699 10.5198 125.38C20.8798 140 37.9298 149.54 57.2198 149.54C75.0898 149.54 91.0398 141.34 101.53 128.51L84.8798 112.08Z" fill="#0053FF"/>
<path d="M780.16 40.7198V45.3798C772.79 41.0598 764.22 38.5698 755.07 38.5698C727.63 38.5698 705.39 60.8098 705.39 88.2498C705.39 115.69 727.63 137.93 755.07 137.93C764.18 137.93 772.71 135.47 780.05 131.19C780.12 131.94 780.16 132.69 780.16 133.45C780.16 147.31 768.92 158.54 755.07 158.54C747.38 158.54 740.5 155.08 735.89 149.63L711.26 160.2C720.28 174.94 736.52 184.77 755.06 184.77C783.4 184.77 806.38 161.79 806.38 133.45V40.7198H780.16ZM755.07 113.01C741.4 113.01 730.31 101.93 730.31 88.2498C730.31 74.5698 741.39 63.4898 755.07 63.4898C768.75 63.4898 779.83 74.5698 779.83 88.2498C779.83 101.93 768.75 113.01 755.07 113.01Z" fill="#0053FF"/>
</g>
<defs>
<clipPath id="clip0_2001_8277">
<rect width="1006" height="185" fill="white"/>
</clipPath>
</defs>
</svg>

