<svg width="150" height="150" viewBox="0 0 150 150" fill="none" xmlns="http://www.w3.org/2000/svg">
<path d="M115.661 127.538H41.7905C35.7043 127.538 30.7705 132.47 30.7705 138.553C30.7705 144.637 35.7043 149.568 41.7905 149.568H115.661C121.747 149.568 126.681 144.637 126.681 138.553C126.681 132.47 121.747 127.538 115.661 127.538Z" fill="white"/>
<path d="M27.8209 74.9679C30.8409 30.7479 83.8909 7.11794 109.861 37.7879L125.981 20.3679C115.491 7.92795 99.7809 -0.292054 82.2309 0.00794616C50.2309 0.577946 24.3909 26.5179 25.0109 57.2279C25.1409 63.4179 26.0009 69.3779 27.8209 74.9679Z" fill="white"/>
<path d="M109.891 76.9881C104.101 84.3181 92.8805 90.5181 82.8205 90.5181C65.3605 90.5181 48.0505 74.3081 55.1805 46.7881C55.1805 46.7881 34.2105 61.7781 35.5305 90.2881C45.8905 104.908 62.9405 114.448 82.2305 114.448C100.101 114.448 116.051 106.248 126.541 93.4181L109.891 76.9881Z" fill="white"/>
</svg>

