<?xml version="1.0" encoding="UTF-8"?>
<svg width="52" height="53" fill="none" version="1.1" viewBox="0 0 52 53" xmlns="http://www.w3.org/2000/svg">
 <path d="m22.536 6.5c1.5396-2.6667 5.3886-2.6667 6.9282 0l15.588 27c1.5396 2.6667-0.3849 6-3.4641 6h-31.177c-3.0792 0-5.0037-3.3333-3.4641-6l15.588-27z" fill="#FFC700"/>
 <g fill="#3c2444" aria-label="!">
  <path d="m27.992 16.054-0.42969 13.125h-3.138l-0.42969-13.125zm-4.1016 17.188q0-0.84636 0.57292-1.4193 0.57292-0.58594 1.5365-0.58594t1.5365 0.58594q0.57292 0.57292 0.57292 1.4193 0 0.83333-0.57292 1.4063-0.57292 0.57292-1.5365 0.57292t-1.5365-0.57292q-0.57292-0.57292-0.57292-1.4063z"/>
 </g>
</svg>
