<?xml version="1.0" encoding="UTF-8"?>
<svg width="25" height="23" fill="none" version="1.1" viewBox="0 0 25 23" xmlns="http://www.w3.org/2000/svg">
 <defs>
  <clipPath id="clipPath70592">
   <path d="m13.895 6.017-0.30078 9.1875h-2.1966l-0.30078-9.1875zm-2.8711 12.031q0-0.59245 0.40104-0.99349 0.40104-0.41016 1.0755-0.41016 0.67448 0 1.0755 0.41016 0.40104 0.40104 0.40104 0.99349 0 0.58334-0.40104 0.98438t-1.0755 0.40104q-0.67448 0-1.0755-0.40104-0.40104-0.40104-0.40104-0.98438z" display="none" fill="#f00"/>
   <path class="powerclip" d="m-4.6288-4.5347h34.258v32.069h-34.258zm18.523 10.552h-2.7982l0.30078 9.1875h2.1966zm-2.8711 12.031q0 0.58334 0.40104 0.98438 0.40104 0.40104 1.0755 0.40104 0.67448 0 1.0755-0.40104t0.40104-0.98438q0-0.59245-0.40104-0.99349-0.40104-0.41016-1.0755-0.41016-0.67448 0-1.0755 0.41016-0.40104 0.40104-0.40104 0.99349z" fill="#f00"/>
  </clipPath>
 </defs>
 <path id="Subtract" d="m15.964 2.4653c-1.5396-2.6667-5.3886-2.6667-6.9282 0l-8.1228 14.069c-1.5396 2.6667 0.3849 6 3.4641 6h16.246c3.0792 0 5.0037-3.3333 3.4641-6z" clip-path="url(#clipPath70592)" clip-rule="evenodd" fill="#ffc700" fill-rule="evenodd"/>
</svg>
