<svg width="55" height="55" viewBox="0 0 55 55" fill="none" xmlns="http://www.w3.org/2000/svg">
<path id="Star 9" d="M19.9954 2.09657C18.0823 0.0161513 14.6166 1.49374 14.793 4.31457L15.8964 21.9515C15.9152 22.2524 15.7972 22.5458 15.5752 22.75L2.5677 34.7116C0.487284 36.6248 1.96488 40.0905 4.7857 39.914L22.4226 38.8107C22.7236 38.7919 23.017 38.9099 23.2211 39.1319L35.1828 52.1394C37.0959 54.2198 40.5616 52.7422 40.3852 49.9214L39.2818 32.2845C39.263 31.9835 39.381 31.6901 39.603 31.486L52.6105 19.5243C54.6909 17.6112 53.2133 14.1455 50.3925 14.3219L32.7556 15.4252C32.4546 15.4441 32.1612 15.3261 31.9571 15.1041L19.9954 2.09657Z" stroke="#FDF8FF" stroke-width="2"/>
</svg>
