<svg width="52" height="53" viewBox="0 0 52 53" fill="none" xmlns="http://www.w3.org/2000/svg">
<path id="Star 16" d="M37.282 7.7208C36.48 3.26999 31.2292 1.27281 27.672 4.06557L20.7672 9.48657C20.3412 9.82101 19.7978 9.96839 19.2612 9.89504L10.5635 8.70597C6.08267 8.09339 2.56066 12.47 4.1175 16.7161L7.13946 24.9582C7.32589 25.4667 7.29815 26.029 7.06257 26.5167L3.24395 34.4212C1.27671 38.4935 4.35077 43.1955 8.87014 43.027L17.6427 42.6999C18.1839 42.6797 18.7101 42.8799 19.1011 43.2546L25.4388 49.329C28.7038 52.4583 34.1257 50.9878 35.3619 46.6375L37.7617 38.1933C37.9097 37.6723 38.2627 37.2337 38.7399 36.9776L46.4755 32.8272C50.4606 30.689 50.7374 25.0781 46.9821 22.558L39.6927 17.6663C39.243 17.3645 38.935 16.8933 38.8389 16.3603L37.282 7.7208Z" stroke="#FDF8FF" stroke-width="4"/>
</svg>
